<svg width="7" height="4" viewBox="0 0 7 4" fill="none" xmlns="http://www.w3.org/2000/svg">
<path d="M3.85086 3.85333C3.80498 3.89979 3.75035 3.93668 3.69012 3.96186C3.62989 3.98704 3.56527 4 3.5 4C3.43473 4 3.37011 3.98704 3.30988 3.96186C3.24965 3.93668 3.19502 3.89979 3.14914 3.85333L0.14181 0.844063C0.0503047 0.750631 -0.000653948 0.624838 6.33746e-06 0.494021C0.000666623 0.363204 0.0528929 0.237933 0.145336 0.14543C0.23778 0.0529269 0.362971 0.000667051 0.493704 6.34153e-06C0.624437 -0.000654368 0.750149 0.050337 0.843522 0.141901L3.5 2.79005L6.15648 0.141901C6.24985 0.050337 6.37556 -0.000654368 6.5063 6.34153e-06C6.63703 0.000667051 6.76222 0.0529269 6.85466 0.14543C6.94711 0.237933 6.99933 0.363204 6.99999 0.494021C7.00065 0.624838 6.9497 0.750631 6.85819 0.844063L3.85086 3.85333Z" fill="#808080"/>
</svg>
