<svg width="75" height="48" viewBox="0 0 75 48" fill="none" xmlns="http://www.w3.org/2000/svg">
<g clip-path="url(#clip0_15_6)">
<path fill-rule="evenodd" clip-rule="evenodd" d="M61.7142 16.6699L65.22 22.8015C67.6933 27.127 69.4713 30.2411 70.5982 32.7122C71.7297 35.193 72.0462 36.703 71.9206 37.8655C71.6553 40.3194 70.3634 42.5463 68.3647 43.9946C67.4177 44.6808 65.9498 45.1556 63.2348 45.4047C60.5302 45.6528 56.9444 45.655 51.9615 45.655H47.0675C51.1935 42.5276 52.8731 36.5871 49.9717 31.5129L38.3575 11.1998C39.3733 9.48465 40.2596 8.06206 41.0834 6.88552C42.6674 4.62354 43.8201 3.57666 44.8927 3.09694C47.1598 2.08295 49.7516 2.08295 52.0189 3.09694C53.0915 3.57666 54.2441 4.62354 55.8281 6.88552C57.4047 9.13711 59.2097 12.2898 61.7142 16.6699ZM37.0876 13.3745L48.0777 32.5959C51.3443 38.3092 47.3522 45.3947 40.8609 45.648C37.9121 45.6319 35.5769 45.5791 33.6768 45.4047C30.9615 45.1556 29.4936 44.6808 28.5469 43.9946C26.5481 42.5463 25.2561 40.3194 24.991 37.8655C24.8653 36.703 25.1817 35.193 26.3132 32.7122C27.4403 30.2411 29.2183 27.1272 31.6913 22.8015L35.1971 16.67C35.8754 15.4836 36.5025 14.3873 37.0876 13.3745ZM35.8357 11.1849C35.0633 12.5085 34.2262 13.9727 33.3031 15.587L29.7973 21.7185C24.8937 30.2952 22.4417 34.5834 22.8218 38.1C23.1469 41.1079 24.706 43.843 27.1222 45.655H10.9252C4.22326 45.655 0.0223416 38.414 3.34892 32.5959L18.137 6.73187C21.4878 0.871317 29.9387 0.871314 33.2895 6.73187L35.8357 11.1849ZM37.1151 9.02686L35.1836 5.64891C30.9951 -1.67679 20.4315 -1.67678 16.2429 5.64893L1.45484 31.5129C-2.70338 38.7855 2.54775 47.8368 10.9252 47.8368H40.5013C40.6329 47.8368 40.7636 47.8346 40.8936 47.83C42.1444 47.8368 43.4935 47.8368 44.95 47.8368H51.9615C61.841 47.8368 66.7809 47.8368 69.6449 45.7615C72.1433 43.951 73.7581 41.1674 74.0897 38.1C74.4698 34.5834 72.0179 30.2952 67.1142 21.7186L67.114 21.7185L63.6083 15.587C58.6422 6.9014 56.1591 2.5586 52.9095 1.10524C50.0756 -0.162237 46.8358 -0.162237 44.0018 1.10524C41.7057 2.13219 39.7922 4.60181 37.1151 9.02686Z" fill="url(#paint0_linear_15_6)"/>
</g>
<defs>
<linearGradient id="paint0_linear_15_6" x1="-2.13721" y1="23.1781" x2="79.2971" y2="23.5689" gradientUnits="userSpaceOnUse">
<stop stop-color="#4C3F91"/>
<stop offset="0.338542" stop-color="#9145B6"/>
<stop offset="0.661458" stop-color="#B958A5"/>
<stop offset="1" stop-color="#FF5677"/>
</linearGradient>
<clipPath id="clip0_15_6">
<rect width="74.1818" height="48" fill="white"/>
</clipPath>
</defs>
</svg>
