<svg width="32" height="32" viewBox="0 0 32 32" fill="none" xmlns="http://www.w3.org/2000/svg">
<path d="M25.9134 5.42H6.08669C5.20264 5.42 4.35479 5.77119 3.72967 6.39631C3.10455 7.02143 2.75336 7.86928 2.75336 8.75333V23.2467C2.75336 24.1307 3.10455 24.9786 3.72967 25.6037C4.35479 26.2288 5.20264 26.58 6.08669 26.58H25.9134C26.7974 26.58 27.6453 26.2288 28.2704 25.6037C28.8955 24.9786 29.2467 24.1307 29.2467 23.2467V8.75333C29.2467 7.86928 28.8955 7.02143 28.2704 6.39631C27.6453 5.77119 26.7974 5.42 25.9134 5.42V5.42ZM27.9134 18.66H19.3534C18.6461 18.66 17.9678 18.379 17.4677 17.8789C16.9676 17.3789 16.6867 16.7006 16.6867 15.9933C16.6867 15.2861 16.9676 14.6078 17.4677 14.1077C17.9678 13.6076 18.6461 13.3267 19.3534 13.3267H27.9134V18.66ZM19.3534 11.9933C18.2925 11.9933 17.2751 12.4148 16.5249 13.1649C15.7748 13.915 15.3534 14.9325 15.3534 15.9933C15.3534 17.0542 15.7748 18.0716 16.5249 18.8218C17.2751 19.5719 18.2925 19.9933 19.3534 19.9933H27.9134V23.2467C27.9134 23.7771 27.7026 24.2858 27.3276 24.6609C26.9525 25.036 26.4438 25.2467 25.9134 25.2467H6.08669C5.55626 25.2467 5.04755 25.036 4.67248 24.6609C4.2974 24.2858 4.08669 23.7771 4.08669 23.2467V8.75333C4.08669 8.2229 4.2974 7.71419 4.67248 7.33912C5.04755 6.96404 5.55626 6.75333 6.08669 6.75333H25.9134C26.4438 6.75333 26.9525 6.96404 27.3276 7.33912C27.7026 7.71419 27.9134 8.2229 27.9134 8.75333V11.9933H19.3534Z" fill="url(#paint0_linear_41_51)"/>
<path d="M19.3587 17.328C20.0951 17.328 20.6921 16.731 20.6921 15.9947C20.6921 15.2583 20.0951 14.6613 19.3587 14.6613C18.6223 14.6613 18.0254 15.2583 18.0254 15.9947C18.0254 16.731 18.6223 17.328 19.3587 17.328Z" fill="url(#paint1_linear_41_51)"/>
<defs>
<linearGradient id="paint0_linear_41_51" x1="1.98952" y1="15.6371" x2="31.0943" y2="15.7496" gradientUnits="userSpaceOnUse">
<stop stop-color="#4C3F91"/>
<stop offset="0.338542" stop-color="#9145B6"/>
<stop offset="0.661458" stop-color="#B958A5"/>
<stop offset="1" stop-color="#FF5677"/>
</linearGradient>
<linearGradient id="paint1_linear_41_51" x1="17.9485" y1="15.9489" x2="20.878" y2="15.958" gradientUnits="userSpaceOnUse">
<stop stop-color="#4C3F91"/>
<stop offset="0.338542" stop-color="#9145B6"/>
<stop offset="0.661458" stop-color="#B958A5"/>
<stop offset="1" stop-color="#FF5677"/>
</linearGradient>
</defs>
</svg>
